<?xml version="1.0" encoding="UTF-8"?>
<svg id="_レイヤー_1" data-name="レイヤー 1" xmlns="http://www.w3.org/2000/svg" viewBox="0 0 424.69 424.87">
  <defs>
    <style>
      .cls-1 {
        fill: none;
        stroke: #00489e;
        stroke-linecap: round;
        stroke-linejoin: round;
        stroke-width: 4px;
      }
    </style>
  </defs>
  <path class="cls-1" d="M124.91,55.12l-7.07-7.07c-2.06-2.06-5.39-2.06-7.45,0l-13.85,13.85c-1.92,1.92-5,2.07-7.09.33l-1.7-1.41c-2.24-1.86-5.56-1.55-7.42.69l-1.73,2.09c-1.86,2.24-1.55,5.56.69,7.42h0c2.39,1.98,2.55,5.59.36,7.78l-18.41,18.41v21.71c0,2.91,2.36,5.27,5.27,5.27h6.94c2.91,0,5.27-2.36,5.27-5.27v-7.97c0-1.4.56-2.74,1.54-3.73l44.65-44.65c2.06-2.06,2.06-5.39,0-7.45Z"/>
  <path class="cls-1" d="M79.63,422.87H27.31c-4.6,0-8.32-3.73-8.32-8.32v-55.3c0-3.51-2.2-6.64-5.5-7.83l-5.98-2.15c-3.3-1.19-5.5-4.32-5.5-7.83v-36.36c0-4.6,3.73-8.32,8.32-8.32h69.31c4.6,0,8.32,3.73,8.32,8.32v109.47c0,4.6-3.73,8.32-8.32,8.32Z"/>
  <rect class="cls-1" x="100.14" y="338.81" width="87.94" height="42.12" rx="3.75" ry="3.75"/>
  <path class="cls-1" d="M373.42,157.68v166.51c0,3.35-2.72,6.06-6.06,6.06h-21.09c-3.35,0-6.06,2.72-6.06,6.06v12.93c0,3.35-2.72,6.06-6.06,6.06h-72.33c-3.35,0-6.06,2.72-6.06,6.06v12.93c0,3.35-2.72,6.06-6.06,6.06h-42.77c-3.35,0-6.06-2.72-6.06-6.06v-41.64c0-3.35-2.72-6.06-6.06-6.06h-88.66c-3.35,0-6.06-2.72-6.06-6.06v-51.5c0-3.35,2.72-6.06,6.06-6.06h143.83c3.35,0,6.06-2.72,6.06-6.06v-37.98c0-3.35,2.72-6.06,6.06-6.06h29.26c3.35,0,6.06-2.72,6.06-6.06v-76.55c0-3.35,2.72-6.06,6.06-6.06h63.88c3.35,0,6.06,2.72,6.06,6.06v27.44Z"/>
  <path class="cls-1" d="M357.94,2h56.11c4.77,0,8.64,3.87,8.64,8.64v83.23c0,4.77-3.87,8.64-8.64,8.64h-75.98c-2.24,0-4.4.87-6.01,2.43l-3.7,3.59c-1.61,1.56-3.76,2.43-6.01,2.43h-15.74c-4.77,0-8.64-3.87-8.64-8.64V10.64c0-4.77,3.87-8.64,8.64-8.64h51.33Z"/>
</svg>